<svg height="512pt" viewBox="0 -82 512.00062 512" width="512pt" xmlns="http://www.w3.org/2000/svg"><path d="m52.066406 303.730469h208.273438v-17.359375h-199.59375v-156.203125h-17.355469v164.882812c0 4.792969 3.882813 8.679688 8.675781 8.679688zm0 0"/><path d="m78.101562 234.304688h17.355469v34.710937h-17.355469zm0 0"/><path d="m112.8125 225.628906h17.355469v43.386719h-17.355469zm0 0"/><path d="m147.527344 208.273438h17.355468v60.742187h-17.355468zm0 0"/><path d="m182.238281 190.914062h17.355469v78.101563h-17.355469zm0 0"/><path d="m216.949219 164.882812h17.355469v104.132813h-17.355469zm0 0"/><path d="m190.914062 164.882812h17.355469v-34.714843c0-4.789063-3.882812-8.675781-8.675781-8.675781h-34.714844v17.355468h12.253906c-28.078124 22.539063-63.027343 34.789063-99.03125 34.710938v17.355468c41.25.101563 81.210938-14.386718 112.8125-40.898437zm0 0"/><path d="m260.339844 269.015625h17.355468v17.355469h-17.355468zm0 0"/><path d="m503.320312 0h-277.695312c-4.789062 0-8.675781 3.886719-8.675781 8.679688v78.101562h-208.269531c-4.792969 0-8.679688 3.882812-8.679688 8.675781v242.984375c0 4.792969 3.886719 8.675782 8.679688 8.675782h312.40625c4.792968 0 8.675781-3.882813 8.675781-8.675782v-112.8125h173.5625c4.789062 0 8.675781-3.886718 8.675781-8.679687v-208.269531c0-4.792969-3.886719-8.679688-8.679688-8.679688zm-190.914062 329.761719h-295.050781v-225.625h295.050781zm182.238281-121.488281h-164.882812v-17.359376h130.171875v-17.355468h-130.171875v-78.101563c0-4.792969-3.882813-8.675781-8.675781-8.675781h-52.070313v-52.070312h-17.355469v52.070312h-17.355468v-69.425781h260.339843zm0 0"/><path d="m459.933594 156.203125h17.355468v17.355469h-17.355468zm0 0"/><path d="m416.542969 130.167969h17.355469v26.035156h-17.355469zm0 0"/><path d="m381.832031 121.492188h17.355469v34.710937h-17.355469zm0 0"/><path d="m347.117188 104.136719h17.355468v52.066406h-17.355468zm0 0"/><path d="m359.023438 86.164062 38.070312-15.238281 15.855469 15.855469h-13.761719v17.355469h34.710938c4.792968 0 8.675781-3.886719 8.675781-8.679688v-34.710937h-17.355469v13.761718l-19.898438-19.898437c-2.453124-2.457031-6.136718-3.214844-9.363281-1.925781l-39.386719 15.761718-39.695312-23.8125-8.9375 14.871094 43.390625 26.035156c2.328125 1.390626 5.171875 1.621094 7.695313.625zm0 0"/></svg>