<svg fill="#000000" xmlns="http://www.w3.org/2000/svg"  viewBox="0 0 128 128" width="23px" height="23px"><path d="M92.3,13.7c-8.1,0-15.8,3.2-21.6,8.9L64,29.3l-6.7-6.7c-5.8-5.8-13.4-8.9-21.6-8.9s-15.8,3.2-21.6,8.9C8.4,28.4,5.2,36,5.2,44.2S8.4,60,14.1,65.7l7.2,7.2c1.2,1.2,3.1,1.2,4.2,0c1.2-1.2,1.2-3.1,0-4.2l-7.2-7.2c-4.6-4.6-7.2-10.8-7.2-17.3s2.5-12.7,7.2-17.3c4.6-4.6,10.8-7.2,17.3-7.2c6.5,0,12.7,2.5,17.3,7.2l8.8,8.8c1.2,1.2,3.1,1.2,4.2,0l8.8-8.8c9.6-9.6,25.1-9.6,34.6,0c4.6,4.6,7.2,10.8,7.2,17.3s-2.5,12.7-7.2,17.3L69,102.1c-1.3,1.3-3.1,2-5,2s-3.6-0.7-4.9-2L45.8,88.9c-1.2-1.2-3.1-1.2-4.2,0c-1.2,1.2-1.2,3.1,0,4.2l13.3,13.3c2.5,2.5,5.7,3.8,9.2,3.8s6.7-1.4,9.2-3.8l40.7-40.7c5.8-5.8,8.9-13.4,8.9-21.6s-3.2-15.8-8.9-21.6C108.1,16.8,100.4,13.7,92.3,13.7z"/></svg>